<svg version="1.1" id="Layer_1" xmlns="http://www.w3.org/2000/svg" xmlns:xlink="http://www.w3.org/1999/xlink" x="0px" y="0px"
	 width="100%" viewBox="0 0 1600 1600" enable-background="new 0 0 1600 1600" xml:space="preserve">
<path fill="#000000" opacity="1.000000" stroke="none" 
	d="
M704.000000,1601.000000 
	C469.333374,1601.000000 235.166748,1601.000000 1.000094,1601.000000 
	C1.000063,1067.666748 1.000063,534.333618 1.000031,1.000309 
	C534.333069,1.000206 1067.666138,1.000206 1600.999512,1.000103 
	C1600.999634,534.333008 1600.999634,1067.666016 1600.999756,1600.999512 
	C1302.166626,1601.000000 1003.333313,1601.000000 704.000000,1601.000000 
M952.521423,789.937561 
	C952.737000,789.626953 952.952515,789.316406 953.041931,789.006897 
	C953.041931,789.006897 953.043701,789.133057 953.663208,788.866821 
	C953.832336,788.225952 954.001465,787.585022 953.992737,786.957825 
	C953.992737,786.957825 954.005737,787.135681 954.689514,786.819336 
	C958.283752,782.665894 958.122192,777.678406 958.013428,771.783813 
	C958.031860,734.325745 958.065735,696.867615 958.054321,659.409546 
	C958.052307,652.758850 957.861633,646.108154 958.519226,638.963379 
	C958.934082,634.098267 959.123779,629.381653 963.746765,625.926636 
	C967.237976,623.317444 970.499756,620.023254 972.844849,616.378418 
	C974.718506,613.466370 975.057251,609.566711 976.000000,606.002441 
	C976.000000,606.002441 976.081604,606.101868 976.804565,605.997498 
	C978.390198,604.982361 979.975830,603.967163 981.471985,602.906006 
	C981.471985,602.906006 981.424133,602.994507 982.153870,602.972412 
	C982.484924,602.662354 982.815979,602.352295 983.001648,602.034302 
	C983.001648,602.034302 982.994263,602.179810 983.626343,602.003357 
	C984.122864,601.692566 984.619385,601.381775 985.046936,601.036072 
	C985.046936,601.036072 985.073853,601.108521 985.729553,600.989197 
	C986.533020,600.331604 987.336487,599.674011 987.973755,599.006348 
	C987.973755,599.006348 987.963135,599.172607 988.592957,598.970154 
	C989.104919,598.659729 989.616882,598.349304 989.969849,598.019287 
	C989.969849,598.019287 989.949707,598.178162 990.681396,597.988892 
	C991.304749,597.641785 991.928162,597.294739 992.471313,596.907043 
	C992.471313,596.907043 992.428894,596.986328 993.154236,596.968201 
	C993.484680,596.662048 993.815186,596.355896 994.032410,596.046631 
	C994.032410,596.046631 994.030396,596.159851 994.558167,595.957764 
	C994.758728,595.648682 994.959229,595.339539 995.046997,595.032532 
	C995.046997,595.032532 995.050232,595.145264 995.703430,594.827820 
	C995.799194,594.360535 995.894958,593.893250 995.906128,593.472168 
	C995.906128,593.472168 995.950500,593.557617 996.538940,592.931824 
	C998.291077,587.388245 999.648743,581.880188 995.090576,576.997437 
	C995.090576,576.997437 995.182983,576.999756 994.898438,576.392090 
	C994.578308,576.080688 994.258240,575.769287 993.942627,575.223083 
	C993.942627,575.223083 993.541504,575.063354 992.969421,574.461243 
	C992.454773,574.309692 991.940063,574.158142 991.470947,574.093689 
	C991.470947,574.093689 991.558960,574.049927 990.971436,573.461731 
	C990.456177,573.309998 989.940979,573.158325 989.471680,573.093201 
	C989.471680,573.093201 989.559143,573.049072 989.016235,572.526917 
	C988.331787,572.289673 987.647278,572.052490 986.979065,571.951538 
	C986.979065,571.951538 987.115356,571.934753 986.833679,571.343994 
	C986.211487,571.169495 985.589294,570.994934 984.979370,570.972290 
	C984.979370,570.972290 985.131226,570.959534 984.854797,570.356995 
	C984.226257,570.180603 983.597656,570.004211 982.980774,569.977783 
	C982.980774,569.977783 983.130676,569.965820 982.849670,569.366211 
	C982.222717,569.186462 981.595825,569.006714 980.979614,568.977051 
	C980.979614,568.977051 981.129700,568.966064 980.851196,568.363708 
	C980.221924,568.185730 979.592651,568.007751 978.974487,567.998535 
	C978.974487,567.998535 979.143311,567.987915 978.822327,567.341309 
	C978.196228,567.047546 977.570129,566.753845 976.499695,565.953247 
	C973.922119,565.100281 971.344482,564.247253 968.875854,562.758972 
	C968.601074,562.466736 968.326294,562.174500 968.048706,561.952087 
	C968.048706,561.952087 968.118469,561.948059 967.822876,561.368469 
	C967.205688,561.188782 966.588562,561.009094 965.984741,560.973694 
	C965.984741,560.973694 966.129089,560.960083 965.834717,560.367065 
	C965.206970,560.187073 964.579224,560.007080 963.964722,559.994568 
	C963.964722,559.994568 964.132263,559.981689 963.857117,559.371826 
	C963.223755,559.192810 962.590332,559.013794 961.969788,558.993774 
	C961.969788,558.993774 962.128845,558.981384 961.844421,558.378906 
	C961.212769,558.198486 960.581116,558.018066 959.960938,558.014038 
	C959.960938,558.014038 960.137512,558.003296 959.864685,557.383057 
	C958.922913,556.875122 957.981079,556.367126 957.039307,555.966370 
	C957.039307,555.966370 957.146484,555.965271 956.834229,555.304871 
	C956.365051,555.206543 955.895813,555.108215 955.471069,555.093506 
	C955.471069,555.093506 955.555603,555.050842 955.016235,554.517883 
	C952.033447,552.976868 949.050659,551.435852 946.026428,549.975708 
	C946.026428,549.975708 946.098755,549.920715 945.792725,549.278809 
	C940.046021,546.169006 934.370667,542.914734 928.516113,540.023438 
	C926.296570,538.927307 923.688782,538.543762 921.215210,538.049133 
	C913.157166,536.437622 906.908875,541.105713 900.313965,544.357361 
	C896.782898,546.098328 893.631592,547.081970 889.730103,545.068481 
	C886.276917,543.286377 882.203857,542.723511 878.701965,541.013184 
	C874.404480,538.914368 870.481384,536.064087 866.280579,533.749023 
	C857.606201,528.968628 848.903687,524.233887 840.118347,519.661926 
	C834.182312,516.572815 828.085083,513.793579 822.034119,510.946930 
	C822.034119,510.946930 822.103210,510.915863 821.799927,510.271454 
	C818.872314,508.678650 815.911560,507.143524 813.023132,505.482513 
	C803.623718,500.077423 793.878113,499.837128 783.931030,503.606812 
	C781.795105,504.416290 779.886475,505.825806 778.006653,506.971161 
	C778.006653,506.971161 778.018555,506.837677 777.393433,507.012726 
	C776.892090,507.317993 776.390686,507.623260 775.956482,507.941498 
	C775.956482,507.941498 775.948425,507.873596 775.211548,508.008240 
	C768.766418,511.659119 762.321228,515.309998 755.997314,518.969543 
	C755.997314,518.969543 756.005493,518.848328 755.274597,519.016541 
	C753.478638,519.988586 751.682678,520.960632 749.961914,521.937256 
	C749.961914,521.937256 749.965149,521.861938 749.235840,522.017090 
	C746.450195,523.662781 743.664490,525.308411 741.005615,526.965881 
	C741.005615,526.965881 741.017029,526.839111 740.387390,527.018188 
	C739.884949,527.325989 739.382446,527.633728 738.959412,527.945251 
	C738.959412,527.945251 738.961731,527.865845 738.227356,528.002197 
	C735.446777,529.646179 732.666138,531.290222 729.967224,532.938965 
	C729.967224,532.938965 729.970703,532.857178 729.251404,533.014526 
	C727.126404,534.331909 725.001343,535.649353 723.025024,536.984070 
	C723.025024,536.984070 723.042786,536.835449 722.318176,537.021118 
	C721.698914,537.367554 721.079712,537.713989 720.535522,538.101318 
	C720.535522,538.101318 720.578247,538.027405 719.851013,538.029419 
	C719.522705,538.337219 719.194397,538.644958 719.002869,538.963379 
	C719.002869,538.963379 719.012939,538.826538 718.383057,539.009888 
	C717.884338,539.314209 717.385559,539.618530 716.954407,539.944519 
	C716.954407,539.944519 716.936707,539.875793 716.217224,539.998718 
	C714.104065,541.319885 711.990845,542.640991 710.005615,543.973999 
	C710.005615,543.973999 710.017090,543.846069 709.375610,544.016785 
	C708.875488,544.328125 708.375305,544.639526 708.006897,544.962646 
	C708.006897,544.962646 708.018127,544.830872 707.377625,545.008423 
	C706.876343,545.322449 706.375061,545.636414 705.975220,545.954712 
	C705.975220,545.954712 705.978394,545.853333 705.238525,546.000305 
	C699.979309,549.023743 694.720093,552.047119 689.538269,555.112488 
	C689.538269,555.112488 689.582458,555.036316 688.856445,555.053955 
	C688.528809,555.363586 688.201172,555.673218 688.019043,555.992371 
	C688.019043,555.992371 688.028931,555.846863 687.393127,556.031982 
	C686.887756,556.342102 686.382324,556.652283 686.010620,556.975952 
	C686.010620,556.975952 686.023682,556.842224 685.383240,557.016663 
	C684.881104,557.325745 684.378906,557.634827 684.002319,557.955383 
	C684.002319,557.955383 684.013123,557.829773 683.374695,558.007141 
	C682.875549,558.320740 682.376404,558.634338 682.008179,558.959961 
	C682.008179,558.959961 682.019592,558.829041 681.385986,559.012390 
	C680.885803,559.318787 680.385620,559.625122 679.971130,559.934570 
	C679.971130,559.934570 679.972778,559.848816 679.461243,560.077637 
	C679.266296,560.386963 679.071350,560.696228 679.028442,561.014465 
	C679.028442,561.014465 679.037964,560.862366 678.398071,561.036011 
	C677.891418,561.348511 677.384766,561.661072 677.021606,561.991333 
	C677.021606,561.991333 677.039612,561.847839 676.316040,562.024780 
	C675.697876,562.371033 675.079773,562.717285 674.536926,563.105103 
	C674.536926,563.105103 674.580444,563.030884 673.847900,563.031616 
	C673.519470,563.343750 673.190979,563.655945 673.011719,563.978638 
	C673.011719,563.978638 673.021912,563.829468 672.384338,564.007996 
	C671.882629,564.317932 671.380920,564.627869 670.974426,564.941895 
	C670.974426,564.941895 670.977295,564.846558 670.460144,565.068542 
	C670.267090,565.379761 670.074036,565.691040 670.033569,566.011108 
	C670.033569,566.011108 670.043030,565.858582 669.402100,566.047729 
	C668.895020,566.358154 668.387939,566.668579 668.022217,566.992432 
	C668.022217,566.992432 668.035950,566.851013 667.395935,567.032715 
	C666.888672,567.346313 666.381470,567.659973 666.010986,567.985779 
	C666.010986,567.985779 666.022766,567.848999 665.383057,568.016602 
	C664.880737,568.331726 664.378418,568.646790 664.008667,568.973999 
	C664.008667,568.973999 664.020386,568.841431 663.389709,569.025208 
	C662.885803,569.338867 662.381897,569.652527 662.017151,569.984985 
	C662.017151,569.984985 662.035645,569.845886 661.311279,570.021423 
	C660.694641,570.368652 660.078003,570.715942 659.536621,571.104370 
	C659.536621,571.104370 659.579895,571.030273 658.849487,571.031189 
	C658.520569,571.341125 658.191589,571.651001 658.003357,571.970398 
	C658.003357,571.970398 658.012390,571.829590 657.375488,572.005554 
	C656.876770,572.317810 656.378052,572.630127 655.979553,572.946106 
	C655.979553,572.946106 655.982056,572.845947 655.467834,573.073730 
	C655.271423,573.383423 655.075073,573.693115 655.029419,574.011841 
	C655.029419,574.011841 655.039001,573.861145 654.398071,574.043213 
	C653.892334,574.355164 653.386597,574.667114 653.020752,574.991882 
	C653.020752,574.991882 653.033936,574.852051 652.396851,575.033691 
	C651.890137,575.345032 651.383484,575.656311 651.007263,575.979248 
	C651.007263,575.979248 651.018555,575.848694 650.379578,576.019714 
	C649.878540,576.333496 649.377563,576.647278 649.011047,576.973694 
	C649.011047,576.973694 649.023376,576.839172 648.393860,577.022888 
	C647.887939,577.333984 647.381958,577.645081 646.996643,577.968262 
	C646.996643,577.968262 647.008301,577.847595 646.381592,578.010071 
	C645.883484,578.316162 645.385315,578.622253 644.962585,578.933044 
	C644.962585,578.933044 644.965698,578.857544 644.449097,579.070251 
	C644.253906,579.378174 644.058716,579.686157 644.017456,580.000977 
	C644.017456,580.000977 644.024841,579.847046 643.385925,580.021973 
	C642.882324,580.336975 642.378723,580.651917 641.987488,580.970764 
	C641.987488,580.970764 641.990845,580.858337 641.483704,581.063293 
	C641.314148,581.368774 641.144653,581.674255 640.411743,582.197876 
	C639.662109,582.864563 638.912476,583.531250 637.487305,584.085144 
	C636.954712,584.367981 636.422180,584.650757 635.977234,584.939819 
	C635.977234,584.939819 635.982239,584.852112 635.457703,585.064209 
	C635.257019,585.374207 635.056335,585.684204 634.993591,585.994202 
	C634.993591,585.994202 634.993103,585.856262 634.464722,586.060242 
	C634.261475,586.368774 634.058228,586.677307 633.986328,586.986206 
	C633.986328,586.986206 633.986206,586.854919 633.463318,587.060425 
	C633.259338,587.365479 633.055359,587.670532 632.943298,587.972229 
	C632.943298,587.972229 632.938721,587.880371 632.324036,588.147217 
	C631.833191,589.094666 631.342346,590.042114 630.961670,590.983765 
	C630.961670,590.983765 630.954895,590.873596 630.357300,591.146790 
	C630.186096,591.771179 630.014954,592.395508 629.976074,593.008423 
	C629.976074,593.008423 629.964233,592.876160 629.271179,593.212891 
	C628.185852,597.496643 626.172119,601.776917 626.155762,606.064758 
	C625.944153,661.625366 625.949280,717.187256 626.143799,772.747986 
	C626.159363,777.210205 627.971985,781.666199 628.956909,786.012939 
	C628.956909,786.012939 628.844727,786.006409 629.016724,786.736389 
	C629.994324,788.531738 630.971863,790.327087 631.954712,792.022339 
	C631.954712,792.022339 631.854492,792.018188 632.062134,792.544373 
	C632.372803,792.743225 632.683533,792.942017 632.994324,793.001099 
	C632.994324,793.001099 632.854614,793.001282 633.066711,793.530273 
	C633.380859,793.727661 633.695007,793.925049 634.011780,793.974854 
	C634.011780,793.974854 633.864197,793.971680 634.045959,794.637085 
	C634.434143,795.023315 634.822327,795.409485 635.751465,796.207458 
	C642.770447,800.443359 649.789429,804.679260 657.026672,809.468750 
	C657.339050,809.695679 657.651367,809.922607 657.961914,810.077393 
	C657.961914,810.077393 657.889771,810.080872 658.144470,810.680237 
	C658.764709,810.843628 659.384949,811.007019 659.995056,811.068542 
	C659.995056,811.068542 659.893311,811.079895 660.178467,811.734070 
	C663.362915,813.571960 666.486511,815.526367 669.742737,817.226746 
	C681.193481,823.205933 692.739014,829.005127 704.151001,835.056641 
	C711.355103,838.876892 718.961975,842.281494 725.337524,847.226929 
	C732.249512,852.588379 740.067871,854.795410 748.023987,857.009399 
	C748.023987,857.009399 747.867249,857.020996 748.169128,857.677002 
	C751.093689,859.156250 754.018250,860.635437 756.950684,862.046997 
	C756.950684,862.046997 756.883850,862.060120 757.161133,862.655945 
	C757.785767,862.828979 758.410461,863.002075 759.022095,863.029297 
	C759.022095,863.029297 758.876343,863.042664 759.186218,863.697876 
	C760.472534,864.188232 761.758850,864.678650 763.034119,864.999451 
	C763.034119,864.999451 762.864502,865.009888 763.151123,865.658630 
	C764.753418,866.484619 766.355713,867.310608 767.958191,868.031311 
	C767.958191,868.031311 767.852966,868.032288 768.164307,868.693359 
	C768.633545,868.791687 769.102722,868.890015 769.528687,868.906982 
	C769.528687,868.906982 769.446472,868.948486 769.987183,869.477234 
	C770.676697,869.710388 771.366150,869.943542 772.034241,870.012756 
	C772.034241,870.012756 771.870178,870.033630 772.190186,870.684082 
	C780.717590,876.839111 790.095947,877.526062 800.673950,874.943237 
	C802.075256,874.358704 803.476562,873.774231 805.525635,872.941040 
	C806.057312,872.625854 806.588989,872.310730 806.934631,871.974670 
	C806.934631,871.974670 806.912598,872.160522 807.631836,871.933777 
	C808.265503,871.598572 808.899170,871.263306 809.458740,870.887207 
	C809.458740,870.887207 809.415649,870.960083 810.141785,870.919434 
	C810.474121,870.610657 810.806458,870.301819 810.946045,869.973022 
	C810.946045,869.973022 810.924927,870.165710 811.659973,869.969299 
	C812.290955,869.628906 812.921936,869.288574 813.472290,868.906616 
	C813.472290,868.906616 813.428894,868.986267 814.162354,868.967896 
	C814.490356,868.652161 814.818359,868.336487 815.009521,868.020630 
	C815.009521,868.020630 815.009827,868.157471 815.668457,867.976501 
	C816.488892,867.312317 817.309326,866.648132 817.948792,865.964844 
	C817.948792,865.964844 817.928528,866.145630 818.664490,865.962769 
	C819.289368,865.621582 819.914246,865.280396 820.463562,864.900208 
	C820.463562,864.900208 820.422607,864.974731 821.161377,864.960999 
	C821.490051,864.643066 821.818665,864.325073 821.960632,864.000549 
	C821.960632,864.000549 821.953369,864.187195 822.556641,863.887878 
	C822.862549,863.560608 823.168396,863.233337 823.432129,862.881409 
	C823.432129,862.881409 823.403625,862.921143 824.196228,862.937134 
	C824.835449,862.647583 825.474670,862.358032 826.030640,862.068970 
	C826.030640,862.068970 826.032471,862.152283 826.538391,861.907288 
	C826.736755,861.597412 826.935120,861.287537 826.951355,860.968750 
	C826.951355,860.968750 826.941284,861.150757 827.653442,860.949707 
	C828.814026,860.306519 829.974609,859.663330 830.961182,859.009277 
	C830.961182,859.009277 830.950073,859.183228 831.595093,858.971985 
	C832.108765,858.658508 832.622375,858.344971 832.974854,858.022278 
	C832.974854,858.022278 832.965271,858.183411 833.607483,857.980164 
	C834.116333,857.665466 834.625183,857.350769 834.976379,857.026306 
	C834.976379,857.026306 834.967102,857.184021 835.604980,856.980713 
	C836.113220,856.670715 836.621460,856.360718 837.033203,856.048157 
	C837.033203,856.048157 837.031860,856.144714 837.731628,855.990479 
	C839.198059,854.997192 840.664490,854.003845 841.963623,852.998474 
	C841.963623,852.998474 841.950989,853.165710 842.635498,852.955200 
	C843.793457,852.327942 844.951477,851.700745 846.029907,851.070557 
	C846.029907,851.070557 846.028381,851.150208 846.720337,850.988525 
	C847.597046,850.277039 848.473755,849.565552 849.939819,848.591187 
	C851.934509,847.435547 853.929199,846.279907 856.642761,844.929932 
	C857.802490,844.286926 858.962219,843.643921 859.939087,842.978943 
	C859.939087,842.978943 859.916016,843.161560 860.629517,842.932922 
	C861.265747,842.602112 861.901978,842.271301 862.465332,841.897034 
	C862.465332,841.897034 862.419861,841.968628 863.160095,841.959656 
	C863.490295,841.642090 863.820557,841.324524 863.966003,840.998352 
	C863.966003,840.998352 863.956848,841.183228 864.598206,840.983337 
	C865.108215,840.672058 865.618164,840.360840 865.984680,840.040283 
	C865.984680,840.040283 865.975769,840.183716 866.612122,839.984436 
	C867.118347,839.674011 867.624573,839.363525 867.987427,839.042786 
	C867.987427,839.042786 867.977600,839.186218 868.609497,838.995056 
	C869.112976,838.688477 869.616516,838.381958 870.042175,838.073669 
	C870.042175,838.073669 870.042236,838.151489 870.576355,837.945740 
	C870.767212,837.625854 870.958008,837.305969 870.949341,836.983215 
	C870.949341,836.983215 870.945435,837.182678 871.572815,836.954712 
	C872.091675,836.642944 872.610535,836.331177 872.977112,836.006348 
	C872.977112,836.006348 872.963623,836.158630 873.611145,835.966858 
	C874.119141,835.652893 874.627136,835.338928 874.963806,835.014282 
	C874.963806,835.014282 874.952881,835.185486 875.591553,834.970825 
	C876.104919,834.663635 876.618347,834.356445 876.986633,834.041565 
	C876.986633,834.041565 876.979492,834.186707 877.589722,833.894653 
	C877.902222,833.570984 878.214783,833.247314 878.451172,832.881104 
	C878.451172,832.881104 878.406372,832.955872 879.187439,832.953369 
	C880.167480,832.302246 881.147583,831.651123 881.955139,830.985474 
	C881.955139,830.985474 881.939819,831.157959 882.591675,830.953125 
	C883.106750,830.641479 883.621826,830.329895 883.961548,830.007996 
	C883.961548,830.007996 883.950928,830.183350 884.595642,829.972046 
	C885.109619,829.658813 885.623657,829.345642 885.977295,829.023254 
	C885.977295,829.023254 885.968384,829.183533 886.610229,828.982727 
	C887.118591,828.667725 887.626953,828.352783 887.976868,828.027161 
	C887.976868,828.027161 887.966553,828.185547 888.600830,827.987000 
	C889.106628,827.680237 889.612366,827.373474 890.029907,827.066895 
	C890.029907,827.066895 890.031372,827.155090 890.546021,826.918396 
	C890.744446,826.605591 890.942932,826.292847 890.957214,825.972961 
	C890.957214,825.972961 890.949097,826.157043 891.599487,825.962891 
	C892.110901,825.650391 892.622314,825.337891 892.946655,825.006409 
	C892.946655,825.006409 892.927063,825.193420 893.656738,824.970276 
	C894.291138,824.630493 894.925537,824.290649 895.472900,823.905151 
	C895.472900,823.905151 895.425415,823.991211 896.158691,823.970947 
	C896.489075,823.656982 896.819519,823.343079 897.019958,823.029846 
	C897.019958,823.029846 897.021484,823.159790 897.542175,822.926697 
	C897.737610,822.610352 897.933105,822.294006 897.928406,821.963440 
	C897.928406,821.963440 897.912598,822.163452 898.644226,821.943787 
	C899.274109,821.605103 899.903992,821.266418 900.462341,820.890320 
	C900.462341,820.890320 900.422791,820.960632 901.251526,820.951599 
	C901.679810,820.612915 902.108032,820.274170 902.461731,819.896118 
	C902.461731,819.896118 902.420288,819.969482 903.159973,819.958862 
	C903.488892,819.641113 903.817810,819.323364 903.960815,818.997681 
	C903.960815,818.997681 903.952332,819.183533 904.598694,818.971069 
	C905.110291,818.654602 905.621887,818.338135 905.986633,818.022705 
	C905.986633,818.022705 905.987976,818.169495 906.493469,817.915222 
	C906.682190,817.600464 906.870972,817.285706 907.782288,816.966309 
	C916.917175,811.954651 926.156555,807.121826 935.147705,801.864502 
	C940.573975,798.691589 945.614685,794.859375 951.385681,790.980103 
	C951.645020,790.645935 951.904358,790.311829 951.985962,789.979919 
	C951.985962,789.979919 951.987671,790.157654 952.521423,789.937561 
z"/>
<path fill="#E9263C" opacity="1.000000" stroke="none" 
	d="
M804.877808,873.189697 
	C803.476562,873.774231 802.075256,874.358704 799.859924,874.926880 
	C790.236694,876.000732 781.835571,874.983032 774.110718,870.224792 
	C773.540833,869.873779 772.625122,870.084167 771.870178,870.033630 
	C771.870178,870.033630 772.034241,870.012756 771.966797,869.631836 
	C771.081726,869.150146 770.264099,869.049316 769.446472,868.948486 
	C769.446472,868.948486 769.528687,868.906982 769.485474,868.493164 
	C768.912476,868.063660 768.382690,868.047974 767.852966,868.032349 
	C767.852966,868.032288 767.958191,868.031311 768.175049,867.749756 
	C766.549500,866.648804 764.706970,865.829346 762.864502,865.009888 
	C762.864502,865.009888 763.034119,864.999451 763.001465,864.696411 
	C761.604675,863.943176 760.240540,863.492920 758.876343,863.042664 
	C758.876343,863.042664 759.022095,863.029297 759.014771,862.667480 
	C758.299561,862.223877 757.591736,862.141968 756.883850,862.060059 
	C756.883850,862.060120 756.950684,862.046997 757.212769,861.781738 
	C754.272278,860.018005 751.069763,858.519470 747.867249,857.020996 
	C747.867249,857.020996 748.023987,857.009399 748.018738,856.674438 
	C747.311401,854.114868 746.000122,851.891541 745.995667,849.665527 
	C745.853394,778.744141 745.880554,707.822266 745.705566,636.901001 
	C745.693970,632.212830 747.400452,629.623901 751.362854,627.477905 
	C800.374512,600.933655 849.574768,574.720276 898.143372,547.385803 
	C912.922729,539.067932 925.847595,537.483887 939.706665,547.685730 
	C941.444275,548.964783 943.949280,549.201233 946.098755,549.920715 
	C946.098755,549.920715 946.026428,549.975708 945.745178,550.210205 
	C948.827820,551.980103 952.191711,553.515442 955.555603,555.050842 
	C955.555603,555.050842 955.471069,555.093506 955.506714,555.513794 
	C956.077026,555.944458 956.611755,555.954834 957.146484,555.965271 
	C957.146484,555.965271 957.039307,555.966370 956.827148,556.260376 
	C957.789124,557.037354 958.963318,557.520325 960.137512,558.003296 
	C960.137512,558.003296 959.960938,558.014038 960.011230,558.305054 
	C960.750671,558.724487 961.439758,558.852905 962.128845,558.981384 
	C962.128845,558.981384 961.969788,558.993774 962.005005,559.301270 
	C962.737549,559.733093 963.434937,559.857422 964.132263,559.981689 
	C964.132263,559.981689 963.964722,559.994568 964.005859,560.311279 
	C964.740967,560.738647 965.435059,560.849365 966.129089,560.960083 
	C966.129089,560.960083 965.984741,560.973694 965.977661,561.329346 
	C966.686523,561.772644 967.402466,561.860352 968.118469,561.948059 
	C968.118469,561.948059 968.048706,561.952087 967.804138,562.210876 
	C967.961975,562.777893 968.364380,563.086121 968.766846,563.394287 
	C971.344482,564.247253 973.922119,565.100281 976.779785,566.621277 
	C977.754395,567.522217 978.448853,567.755066 979.143311,567.987915 
	C979.143311,567.987915 978.974487,567.998535 978.982300,568.321411 
	C979.703369,568.751526 980.416504,568.858765 981.129700,568.966064 
	C981.129700,568.966064 980.979614,568.977051 980.977356,569.313293 
	C981.693604,569.754944 982.412170,569.860352 983.130676,569.965820 
	C983.130676,569.965820 982.980774,569.977783 982.975342,570.319397 
	C983.690369,570.760498 984.410828,570.859985 985.131226,570.959534 
	C985.131226,570.959534 984.979370,570.972290 984.980347,571.338989 
	C985.692627,571.782043 986.403992,571.858398 987.115356,571.934753 
	C987.115356,571.934753 986.979065,571.951538 986.993958,572.376465 
	C987.858948,572.883911 988.709045,572.966492 989.559143,573.049072 
	C989.559143,573.049072 989.471680,573.093201 989.570435,573.574646 
	C990.299133,574.054016 990.929016,574.052002 991.558960,574.049927 
	C991.558960,574.049927 991.470947,574.093689 991.556519,574.607239 
	C992.275208,575.101624 992.908386,575.082458 993.541504,575.063354 
	C993.541504,575.063354 993.942627,575.223083 993.643860,575.812500 
	C993.957703,576.601257 994.570374,576.800537 995.182983,576.999756 
	C995.182983,576.999756 995.090576,576.997437 994.671814,577.188599 
	C994.904297,580.407166 995.774231,583.408691 996.135376,586.470276 
	C996.409485,588.793091 996.035889,591.192383 995.950500,593.557617 
	C995.950500,593.557617 995.906128,593.472168 995.451538,593.484009 
	C995.014648,594.045654 995.032410,594.595459 995.050171,595.145264 
	C995.050232,595.145264 995.046997,595.032532 994.668457,594.818726 
	C994.203369,595.123291 994.116882,595.641541 994.030396,596.159851 
	C994.030396,596.159851 994.032410,596.046631 993.698364,595.767456 
	C993.052551,595.987610 992.740784,596.487000 992.428955,596.986328 
	C992.428894,596.986328 992.471313,596.907043 992.113647,596.671936 
	C991.153870,597.017273 990.551758,597.597717 989.949707,598.178162 
	C989.949707,598.178162 989.969849,598.019287 989.706543,597.798218 
	C988.949829,598.108948 988.456543,598.640808 987.963135,599.172607 
	C987.963135,599.172607 987.973755,599.006348 987.649780,598.848755 
	C986.575134,599.496948 985.824463,600.302734 985.073853,601.108521 
	C985.073853,601.108521 985.046936,601.036072 984.763306,600.694946 
	C983.984497,600.962402 983.489380,601.571106 982.994263,602.179810 
	C982.994263,602.179810 983.001648,602.034302 982.668579,601.780640 
	C982.031677,602.016174 981.727905,602.505310 981.424133,602.994507 
	C981.424133,602.994507 981.471985,602.906006 981.157593,602.633423 
	C979.255920,603.607849 977.668762,604.854858 976.081604,606.101868 
	C976.081604,606.101868 976.000000,606.002441 975.870605,605.639771 
	C966.883545,609.852539 957.935364,614.261902 949.184326,619.032959 
	C915.117920,637.605469 881.115356,656.295227 847.085815,674.935425 
	C839.132996,679.291748 831.324829,679.186157 823.329407,674.720459 
	C812.864319,668.875305 802.224243,663.341003 791.610229,657.766907 
	C789.523499,656.670959 786.996399,654.758789 785.805969,658.962341 
	C783.954163,665.501648 786.264282,671.222900 792.285156,674.471069 
	C801.809021,679.608948 811.501099,684.450012 820.879700,689.838379 
	C830.736084,695.501282 840.176758,695.648254 850.195923,690.101196 
	C881.079346,673.002808 912.112244,656.174194 943.094177,639.253540 
	C947.666199,636.756592 952.276184,634.329102 957.758057,631.393066 
	C957.758057,634.864868 957.758057,637.161133 957.758057,639.457458 
	C957.861633,646.108154 958.052307,652.758850 958.054321,659.409546 
	C958.065735,696.867615 958.031860,734.325745 957.736450,772.591431 
	C956.308167,777.977905 955.156982,782.556824 954.005737,787.135681 
	C954.005737,787.135681 953.992737,786.957825 953.682495,787.018921 
	C953.262817,787.764343 953.153259,788.448669 953.043701,789.133057 
	C953.043701,789.133057 953.041931,789.006897 952.723633,788.897217 
	C952.266174,789.244263 952.126892,789.700928 951.987671,790.157654 
	C951.987671,790.157654 951.985962,789.979919 951.685913,789.953857 
	C951.200195,790.393005 951.014465,790.858215 950.828674,791.323364 
	C945.614685,794.859375 940.573975,798.691589 935.147705,801.864502 
	C926.156555,807.121826 916.917175,811.954651 907.095947,817.035828 
	C906.269104,817.460083 906.128540,817.814819 905.988037,818.169495 
	C905.987976,818.169495 905.986633,818.022705 905.702759,817.851562 
	C904.930054,818.181458 904.441223,818.682495 903.952393,819.183594 
	C903.952332,819.183533 903.960815,818.997681 903.662415,818.885437 
	C903.049438,819.171936 902.734863,819.570740 902.420288,819.969482 
	C902.420288,819.969482 902.461731,819.896118 902.055542,819.846802 
	C901.240479,820.185181 900.831604,820.572876 900.422729,820.960571 
	C900.422791,820.960632 900.462341,820.890320 900.092041,820.831787 
	C899.118713,821.236633 898.515686,821.700073 897.912598,822.163452 
	C897.912598,822.163452 897.928406,821.963440 897.632446,821.951782 
	C897.231445,822.346619 897.126465,822.753235 897.021484,823.159790 
	C897.021484,823.159790 897.019958,823.029846 896.679932,822.823975 
	C896.035034,823.075867 895.730225,823.533569 895.425415,823.991211 
	C895.425415,823.991211 895.472900,823.905151 895.122375,823.691895 
	C894.156921,824.050232 893.541992,824.621826 892.927124,825.193481 
	C892.927063,825.193420 892.946655,825.006409 892.694336,824.839844 
	C891.944397,825.167847 891.446777,825.662476 890.949097,826.157043 
	C890.949097,826.157043 890.957214,825.972961 890.641418,825.956787 
	C890.227539,826.345459 890.129456,826.750244 890.031372,827.155090 
	C890.031372,827.155090 890.029907,827.066895 889.762573,826.750000 
	C888.985657,827.017212 888.476135,827.601379 887.966553,828.185547 
	C887.966553,828.185547 887.976868,828.027161 887.703735,827.803467 
	C886.943237,828.114319 886.455811,828.648926 885.968384,829.183594 
	C885.968384,829.183533 885.977295,829.023254 885.707520,828.826294 
	C884.942078,829.147339 884.446472,829.665344 883.950928,830.183350 
	C883.950928,830.183350 883.961548,830.007996 883.702759,829.856445 
	C882.942566,830.189209 882.441223,830.673584 881.939819,831.157959 
	C881.939819,831.157959 881.955139,830.985474 881.668579,830.909546 
	C880.390076,831.541077 879.398254,832.248474 878.406372,832.955872 
	C878.406372,832.955872 878.451172,832.881104 878.066345,832.925232 
	C877.447510,833.375122 877.213501,833.780884 876.979492,834.186707 
	C876.979492,834.186707 876.986633,834.041565 876.727783,833.788025 
	C875.963562,834.084778 875.458191,834.635132 874.952881,835.185425 
	C874.952881,835.185486 874.963806,835.014282 874.693970,834.838318 
	C873.937317,835.161072 873.450439,835.659851 872.963623,836.158630 
	C872.963623,836.158630 872.977112,836.006348 872.696350,835.859253 
	C871.925537,836.202393 871.435486,836.692505 870.945435,837.182617 
	C870.945435,837.182678 870.949341,836.983215 870.614319,836.925171 
	C870.200256,837.295227 870.121216,837.723389 870.042236,838.151489 
	C870.042236,838.151489 870.042175,838.073669 869.777283,837.727112 
	C869.000793,837.982422 868.489197,838.584290 867.977600,839.186218 
	C867.977600,839.186218 867.987427,839.042786 867.719971,838.772583 
	C866.960327,839.062866 866.468079,839.623291 865.975769,840.183716 
	C865.975769,840.183716 865.984680,840.040283 865.724854,839.782349 
	C864.962280,840.077332 864.459595,840.630310 863.956848,841.183228 
	C863.956848,841.183228 863.966003,840.998352 863.666016,840.876465 
	C863.050659,841.159241 862.735229,841.563904 862.419861,841.968628 
	C862.419861,841.968628 862.465332,841.897034 862.097168,841.871338 
	C861.124634,842.284302 860.520325,842.722900 859.916016,843.161499 
	C859.916016,843.161560 859.939087,842.978943 859.677612,842.906738 
	C858.252014,843.597717 857.087952,844.360962 855.923889,845.124207 
	C853.929199,846.279907 851.934509,847.435547 849.226562,848.697937 
	C847.684998,849.586548 846.856689,850.368347 846.028381,851.150208 
	C846.028381,851.150208 846.029907,851.070557 845.808411,850.752686 
	C844.374939,851.345154 843.162964,852.255432 841.950989,853.165710 
	C841.950989,853.165710 841.963623,852.998474 841.675781,852.878662 
	C839.935913,853.887512 838.483887,855.016113 837.031860,856.144775 
	C837.031860,856.144714 837.033203,856.048157 836.744995,855.781677 
	C835.960144,856.071472 835.463623,856.627747 834.967102,857.184021 
	C834.967102,857.184021 834.976379,857.026306 834.702881,856.808472 
	C833.941284,857.121582 833.453308,857.652527 832.965332,858.183472 
	C832.965271,858.183411 832.974854,858.022278 832.706177,857.824036 
	C831.941650,858.144958 831.445862,858.664062 830.950073,859.183228 
	C830.950073,859.183228 830.961182,859.009277 830.704346,858.852600 
	C829.278748,859.514160 828.109985,860.332458 826.941284,861.150757 
	C826.941284,861.150757 826.951355,860.968750 826.636108,860.969543 
	C826.224731,861.364319 826.128601,861.758301 826.032471,862.152283 
	C826.032471,862.152283 826.030640,862.068970 825.773315,861.735229 
	C824.811951,861.908020 824.107788,862.414612 823.403625,862.921143 
	C823.403625,862.921143 823.432129,862.881409 823.089905,863.019043 
	C822.482910,863.500244 822.218140,863.843689 821.953369,864.187195 
	C821.953369,864.187195 821.960632,864.000549 821.658081,863.874146 
	C821.044617,864.156738 820.733643,864.565735 820.422607,864.974731 
	C820.422607,864.974731 820.463562,864.900208 820.099854,864.787781 
	C819.133545,865.165466 818.531006,865.655518 817.928467,866.145630 
	C817.928528,866.145630 817.948792,865.964844 817.660400,865.944824 
	C816.584656,866.669006 815.797241,867.413269 815.009827,868.157471 
	C815.009827,868.157471 815.009521,868.020630 814.673340,867.843628 
	C814.034485,868.106506 813.731689,868.546387 813.428894,868.986267 
	C813.428894,868.986267 813.472290,868.906616 813.121582,868.712280 
	C812.155518,869.067200 811.540222,869.616455 810.924927,870.165710 
	C810.924927,870.165710 810.946045,869.973022 810.660156,869.915466 
	C810.054810,870.225342 809.735229,870.592712 809.415649,870.960083 
	C809.415649,870.960083 809.458740,870.887207 809.092163,870.878662 
	C808.121216,871.300171 807.516907,871.730347 806.912598,872.160522 
	C806.912598,872.160522 806.934631,871.974670 806.672485,871.910645 
	C805.899536,872.294312 805.388672,872.741943 804.877808,873.189697 
M912.372070,601.268250 
	C921.085083,600.868286 929.129028,598.501038 935.936340,592.858643 
	C940.455017,589.113159 944.080627,584.670715 942.891541,578.294739 
	C941.719971,572.012634 936.576233,569.473938 931.242554,567.861633 
	C917.192261,563.614807 903.518005,564.982483 890.628296,572.018555 
	C881.805847,576.834534 880.151611,581.681152 883.458252,591.135498 
	C882.546143,591.720703 881.625732,592.403625 880.626160,592.938477 
	C867.706360,599.851440 854.757812,606.710876 841.852661,613.651062 
	C831.441223,619.250122 821.032715,624.858887 810.745117,630.679443 
	C809.247559,631.526794 807.203308,634.075806 807.563843,634.964905 
	C808.243103,636.640320 810.417725,638.645935 812.100891,638.771606 
	C815.074646,638.993713 818.525940,638.629028 821.116577,637.259705 
	C842.904053,625.743713 864.623535,614.091370 886.163635,602.120483 
	C891.295349,599.268555 895.865234,597.926697 901.584351,600.122131 
	C904.576233,601.270691 908.134094,600.945007 912.372070,601.268250 
z"/>
<path fill="#12A1E0" opacity="1.000000" stroke="none" 
	d="
M638.162903,584.197876 
	C638.912476,583.531250 639.662109,582.864563 641.002808,582.048706 
	C641.726196,581.552551 641.858521,581.205444 641.990845,580.858337 
	C641.990845,580.858337 641.987488,580.970764 642.283081,581.086548 
	C643.060730,580.750610 643.542786,580.298828 644.024841,579.847046 
	C644.024841,579.847046 644.017456,580.000977 644.311707,580.024292 
	C644.725891,579.650940 644.845764,579.254272 644.965698,578.857544 
	C644.965698,578.857544 644.962585,578.933044 645.250610,579.177002 
	C646.028564,578.896545 646.518433,578.372070 647.008301,577.847595 
	C647.008301,577.847595 646.996643,577.968262 647.286560,578.111328 
	C648.058777,577.782593 648.541077,577.310913 649.023376,576.839172 
	C649.023376,576.839172 649.011047,576.973694 649.294983,577.107422 
	C650.058777,576.776978 650.538696,576.312805 651.018555,575.848694 
	C651.018555,575.848694 651.007263,575.979248 651.287903,576.083069 
	C652.057007,575.741943 652.545471,575.296997 653.033936,574.852051 
	C653.033936,574.852051 653.020752,574.991882 653.294373,575.057373 
	C654.058289,574.702209 654.548645,574.281677 655.039001,573.861145 
	C655.039001,573.861145 655.029419,574.011841 655.305237,573.995605 
	C655.714722,573.601501 655.848389,573.223755 655.982056,572.845947 
	C655.982056,572.845947 655.979553,572.946106 656.273438,573.161499 
	C657.049011,572.861084 657.530701,572.345337 658.012390,571.829590 
	C658.012390,571.829590 658.003357,571.970398 658.319580,572.116943 
	C658.950562,571.852417 659.265259,571.441345 659.579895,571.030273 
	C659.579895,571.030273 659.536621,571.104370 659.906616,571.172241 
	C660.862915,570.775330 661.449280,570.310608 662.035645,569.845886 
	C662.035645,569.845886 662.017151,569.984985 662.302979,570.085999 
	C663.065979,569.738525 663.543213,569.289978 664.020386,568.841431 
	C664.020386,568.841431 664.008667,568.973999 664.292236,569.097107 
	C665.058105,568.763123 665.540405,568.306091 666.022766,567.848999 
	C666.022766,567.848999 666.010986,567.985779 666.290039,568.071228 
	C667.058044,567.721436 667.546997,567.286194 668.035950,566.851013 
	C668.035950,566.851013 668.022217,566.992432 668.294434,567.057556 
	C669.058838,566.701294 669.550964,566.279968 670.043030,565.858643 
	C670.043030,565.858582 670.033569,566.011108 670.312988,565.999268 
	C670.720703,565.607117 670.848999,565.226868 670.977295,564.846558 
	C670.977295,564.846558 670.974426,564.941895 671.262573,565.164673 
	C672.041138,564.868164 672.531555,564.348816 673.021912,563.829468 
	C673.021912,563.829468 673.011719,563.978638 673.325562,564.100464 
	C673.953064,563.825195 674.266785,563.428040 674.580444,563.030884 
	C674.580444,563.030884 674.536926,563.105103 674.906250,563.169800 
	C675.863586,562.772339 676.451599,562.310120 677.039612,561.847839 
	C677.039612,561.847839 677.021606,561.991333 677.294312,562.070312 
	C678.057312,561.720337 678.547607,561.291321 679.037964,560.862366 
	C679.037964,560.862366 679.028442,561.014465 679.310669,560.992065 
	C679.719482,560.596008 679.846069,560.222412 679.972778,559.848816 
	C679.972778,559.848816 679.971130,559.934570 680.253784,560.186890 
	C681.030884,559.902527 681.525208,559.365784 682.019592,558.829041 
	C682.019592,558.829041 682.008179,558.959961 682.291321,559.154907 
	C683.054016,558.843201 683.533569,558.336487 684.013123,557.829773 
	C684.013123,557.829773 684.002319,557.955383 684.273926,558.150940 
	C685.038269,557.845032 685.530945,557.343628 686.023682,556.842224 
	C686.023682,556.842224 686.010620,556.975952 686.292480,557.095337 
	C687.059143,556.758728 687.544067,556.302795 688.028931,555.846863 
	C688.028931,555.846863 688.019043,555.992371 688.325500,556.058777 
	C688.948792,555.762268 689.265625,555.399292 689.582520,555.036316 
	C689.582458,555.036316 689.538269,555.112488 689.905090,555.160156 
	C695.507385,552.089600 700.742920,548.971436 705.978394,545.853333 
	C705.978394,545.853333 705.975220,545.954712 706.272583,546.149414 
	C707.052673,545.839661 707.535400,545.335266 708.018127,544.830872 
	C708.018127,544.830872 708.006897,544.962646 708.283813,545.140625 
	C709.046265,544.827759 709.531677,544.336914 710.017090,543.846069 
	C710.017090,543.846069 710.005615,543.973999 710.309692,544.103516 
	C712.721375,542.780640 714.829041,541.328247 716.936707,539.875793 
	C716.936707,539.875793 716.954407,539.944519 717.236938,540.217651 
	C718.017273,539.936035 718.515137,539.381287 719.012939,538.826538 
	C719.012939,538.826538 719.002869,538.963379 719.320496,539.136475 
	C719.951477,538.882202 720.264832,538.454773 720.578247,538.027405 
	C720.578247,538.027405 720.535522,538.101318 720.907227,538.197510 
	C721.866882,537.807617 722.454834,537.321533 723.042786,536.835449 
	C723.042786,536.835449 723.025024,536.984070 723.316040,537.106079 
	C725.728271,535.771118 727.849487,534.314148 729.970703,532.857178 
	C729.970703,532.857178 729.967224,532.938965 730.256592,533.165527 
	C733.351257,531.549988 736.156494,529.707947 738.961731,527.865845 
	C738.961731,527.865845 738.959412,527.945251 739.259155,528.152344 
	C740.044922,527.852661 740.530945,527.345886 741.017029,526.839111 
	C741.017029,526.839111 741.005615,526.965881 741.296082,527.133423 
	C744.379456,525.488037 747.172302,523.674988 749.965149,521.861938 
	C749.965149,521.861938 749.961914,521.937256 750.248535,522.164551 
	C752.358582,521.210693 754.182068,520.029541 756.005493,518.848328 
	C756.005493,518.848328 755.997314,518.969543 756.300598,519.105469 
	C760.843323,517.069153 765.155579,515.025085 769.293945,512.674805 
	C771.658386,511.332001 773.739685,509.490540 775.948425,507.873596 
	C775.948425,507.873596 775.956482,507.941498 776.246765,508.180237 
	C777.030884,507.891907 777.524719,507.364777 778.018555,506.837677 
	C778.018555,506.837677 778.006653,506.971161 778.314697,507.124542 
	C792.174133,500.231171 805.142334,501.837677 817.764465,509.776672 
	C818.971863,510.536102 820.645874,510.553802 822.103210,510.915894 
	C822.103210,510.915863 822.034119,510.946930 821.854919,511.239136 
	C835.689514,519.193420 849.710083,526.843201 863.712769,534.525635 
	C867.586182,536.650757 871.406433,538.872986 876.041748,541.498474 
	C872.826843,543.321228 870.547974,544.649780 868.236267,545.918396 
	C825.019104,569.635315 781.819458,593.384277 738.553162,617.011108 
	C732.568359,620.279297 729.789368,624.421692 729.818054,631.691040 
	C730.091858,701.004700 729.998108,770.319763 730.009827,839.634460 
	C730.010193,841.752136 730.009888,843.869873 730.009888,846.279358 
	C728.814270,846.083679 728.098633,846.139709 727.566284,845.854065 
	C714.358826,838.770386 701.139893,831.706177 688.035095,824.436462 
	C686.930664,823.823730 686.054199,821.804016 686.017151,820.412720 
	C685.471985,799.927490 685.135010,779.436646 684.613403,758.950623 
	C684.534058,755.831055 685.793579,754.653381 688.679382,753.876343 
	C696.127502,751.871033 701.023376,746.869812 703.642456,739.698608 
	C709.722961,723.050049 702.257202,697.464661 688.167358,686.648499 
	C686.855164,685.641235 685.227417,685.045166 683.183044,683.958984 
	C682.938782,686.896423 682.662292,688.870483 682.628357,690.848633 
	C682.417053,703.175537 682.354004,715.506042 682.003357,727.828552 
	C681.935669,730.208313 683.718933,734.124878 678.934998,734.275269 
	C674.005981,734.430298 675.727539,730.425354 675.697693,728.075500 
	C675.536804,715.414490 675.672668,702.750000 675.636353,690.086914 
	C675.630371,688.006104 675.277405,685.926270 674.960815,682.506775 
	C671.788147,684.886658 669.283875,686.229004 667.476562,688.207825 
	C655.599304,701.212402 651.372070,716.740479 653.587219,733.947754 
	C654.728577,742.814026 659.993652,749.315308 668.226013,752.817444 
	C671.610535,754.257202 672.607056,756.077209 672.501648,759.534302 
	C671.978516,776.687195 671.660461,793.846252 671.230835,811.002197 
	C671.200378,812.218567 670.853821,813.427063 670.661804,814.593140 
	C666.792542,813.330811 663.342896,812.205383 659.893311,811.079956 
	C659.893311,811.079895 659.995056,811.068542 660.006592,810.684204 
	C659.308655,810.226807 658.599182,810.153870 657.889771,810.080933 
	C657.889771,810.080872 657.961914,810.077393 658.095703,809.739197 
	C657.755798,809.239014 657.282043,809.077087 656.808350,808.915161 
	C649.789429,804.679260 642.770447,800.443359 635.412231,795.692566 
	C634.670044,794.775696 634.267090,794.373657 633.864197,793.971680 
	C633.864197,793.971680 634.011780,793.974854 633.997314,793.712891 
	C633.606812,793.301025 633.230713,793.151123 632.854614,793.001282 
	C632.854614,793.001282 632.994324,793.001099 633.029785,792.707214 
	C632.661682,792.281616 632.258057,792.149902 631.854492,792.018188 
	C631.854492,792.018188 631.954712,792.022339 632.140747,791.728516 
	C631.166138,789.625244 630.005432,787.815857 628.844727,786.006409 
	C628.844727,786.006409 628.956909,786.012939 629.146851,785.663574 
	C628.730896,780.553284 627.612366,775.793823 627.598877,771.031250 
	C627.473389,726.637817 627.349548,682.242493 627.651672,637.850647 
	C627.753845,622.852600 625.752686,607.684326 629.964233,592.876160 
	C629.964233,592.876160 629.976074,593.008423 630.287842,592.962646 
	C630.718079,592.235718 630.836487,591.554688 630.954834,590.873596 
	C630.954895,590.873596 630.961670,590.983765 631.293030,591.031372 
	C632.062500,590.012817 632.500610,588.946594 632.938721,587.880371 
	C632.938721,587.880371 632.943298,587.972229 633.264282,588.065002 
	C633.718933,587.723511 633.852539,587.289185 633.986206,586.854919 
	C633.986206,586.854919 633.986328,586.986206 634.277771,587.040894 
	C634.710510,586.682495 634.851807,586.269348 634.993103,585.856262 
	C634.993103,585.856262 634.993591,585.994202 635.287903,586.029175 
	C635.715576,585.660156 635.848938,585.256104 635.982239,584.852112 
	C635.982239,584.852112 635.977234,584.939819 636.212402,585.148865 
	C637.019348,584.971252 637.591125,584.584595 638.162903,584.197876 
z"/>
<path fill="#FCF9F9" opacity="1.000000" stroke="none" 
	d="
M660.035889,811.406982 
	C663.342896,812.205383 666.792542,813.330811 670.661804,814.593140 
	C670.853821,813.427063 671.200378,812.218567 671.230835,811.002197 
	C671.660461,793.846252 671.978516,776.687195 672.501648,759.534302 
	C672.607056,756.077209 671.610535,754.257202 668.226013,752.817444 
	C659.993652,749.315308 654.728577,742.814026 653.587219,733.947754 
	C651.372070,716.740479 655.599304,701.212402 667.476562,688.207825 
	C669.283875,686.229004 671.788147,684.886658 674.960815,682.506775 
	C675.277405,685.926270 675.630371,688.006104 675.636353,690.086914 
	C675.672668,702.750000 675.536804,715.414490 675.697693,728.075500 
	C675.727539,730.425354 674.005981,734.430298 678.934998,734.275269 
	C683.718933,734.124878 681.935669,730.208313 682.003357,727.828552 
	C682.354004,715.506042 682.417053,703.175537 682.628357,690.848633 
	C682.662292,688.870483 682.938782,686.896423 683.183044,683.958984 
	C685.227417,685.045166 686.855164,685.641235 688.167358,686.648499 
	C702.257202,697.464661 709.722961,723.050049 703.642456,739.698608 
	C701.023376,746.869812 696.127502,751.871033 688.679382,753.876343 
	C685.793579,754.653381 684.534058,755.831055 684.613403,758.950623 
	C685.135010,779.436646 685.471985,799.927490 686.017151,820.412720 
	C686.054199,821.804016 686.930664,823.823730 688.035095,824.436462 
	C701.139893,831.706177 714.358826,838.770386 727.566284,845.854065 
	C728.098633,846.139709 728.814270,846.083679 730.009888,846.279358 
	C730.009888,843.869873 730.010193,841.752136 730.009827,839.634460 
	C729.998108,770.319763 730.091858,701.004700 729.818054,631.691040 
	C729.789368,624.421692 732.568359,620.279297 738.553162,617.011108 
	C781.819458,593.384277 825.019104,569.635315 868.236267,545.918396 
	C870.547974,544.649780 872.826843,543.321228 876.041748,541.498474 
	C871.406433,538.872986 867.586182,536.650757 863.712769,534.525635 
	C849.710083,526.843201 835.689514,519.193420 821.867798,511.203491 
	C828.085083,513.793579 834.182312,516.572815 840.118347,519.661926 
	C848.903687,524.233887 857.606201,528.968628 866.280579,533.749023 
	C870.481384,536.064087 874.404480,538.914368 878.701965,541.013184 
	C882.203857,542.723511 886.276917,543.286377 889.730103,545.068481 
	C893.631592,547.081970 896.782898,546.098328 900.313965,544.357361 
	C906.908875,541.105713 913.157166,536.437622 921.215210,538.049133 
	C923.688782,538.543762 926.296570,538.927307 928.516113,540.023438 
	C934.370667,542.914734 940.046021,546.169006 945.945740,549.599731 
	C943.949280,549.201233 941.444275,548.964783 939.706665,547.685730 
	C925.847595,537.483887 912.922729,539.067932 898.143372,547.385803 
	C849.574768,574.720276 800.374512,600.933655 751.362854,627.477905 
	C747.400452,629.623901 745.693970,632.212830 745.705566,636.901001 
	C745.880554,707.822266 745.853394,778.744141 745.995667,849.665527 
	C746.000122,851.891541 747.311401,854.114868 748.024780,856.752808 
	C740.067871,854.795410 732.249512,852.588379 725.337524,847.226929 
	C718.961975,842.281494 711.355103,838.876892 704.151001,835.056641 
	C692.739014,829.005127 681.193481,823.205933 669.742737,817.226746 
	C666.486511,815.526367 663.362915,813.571960 660.035889,811.406982 
z"/>
<path fill="#FCF9F9" opacity="1.000000" stroke="none" 
	d="
M958.138672,639.210449 
	C957.758057,637.161133 957.758057,634.864868 957.758057,631.393066 
	C952.276184,634.329102 947.666199,636.756592 943.094177,639.253540 
	C912.112244,656.174194 881.079346,673.002808 850.195923,690.101196 
	C840.176758,695.648254 830.736084,695.501282 820.879700,689.838379 
	C811.501099,684.450012 801.809021,679.608948 792.285156,674.471069 
	C786.264282,671.222900 783.954163,665.501648 785.805969,658.962341 
	C786.996399,654.758789 789.523499,656.670959 791.610229,657.766907 
	C802.224243,663.341003 812.864319,668.875305 823.329407,674.720459 
	C831.324829,679.186157 839.132996,679.291748 847.085815,674.935425 
	C881.115356,656.295227 915.117920,637.605469 949.184326,619.032959 
	C957.935364,614.261902 966.883545,609.852539 975.909180,605.691223 
	C975.057251,609.566711 974.718506,613.466370 972.844849,616.378418 
	C970.499756,620.023254 967.237976,623.317444 963.746765,625.926636 
	C959.123779,629.381653 958.934082,634.098267 958.138672,639.210449 
z"/>
<path fill="#FCF9F9" opacity="1.000000" stroke="none" 
	d="
M629.617676,593.044556 
	C625.752686,607.684326 627.753845,622.852600 627.651672,637.850647 
	C627.349548,682.242493 627.473389,726.637817 627.598877,771.031250 
	C627.612366,775.793823 628.730896,780.553284 629.143188,785.719604 
	C627.971985,781.666199 626.159363,777.210205 626.143799,772.747986 
	C625.949280,717.187256 625.944153,661.625366 626.155762,606.064758 
	C626.172119,601.776917 628.185852,597.496643 629.617676,593.044556 
z"/>
<path fill="#FCF9F9" opacity="1.000000" stroke="none" 
	d="
M821.951538,510.593689 
	C820.645874,510.553802 818.971863,510.536102 817.764465,509.776672 
	C805.142334,501.837677 792.174133,500.231171 778.247925,507.118408 
	C779.886475,505.825806 781.795105,504.416290 783.931030,503.606812 
	C793.878113,499.837128 803.623718,500.077423 813.023132,505.482513 
	C815.911560,507.143524 818.872314,508.678650 821.951538,510.593689 
z"/>
<path fill="#FCF9F9" opacity="1.000000" stroke="none" 
	d="
M772.030151,870.358887 
	C772.625122,870.084167 773.540833,869.873779 774.110718,870.224792 
	C781.835571,874.983032 790.236694,876.000732 799.509521,874.959106 
	C790.095947,877.526062 780.717590,876.839111 772.030151,870.358887 
z"/>
<path fill="#FCF9F9" opacity="1.000000" stroke="none" 
	d="
M775.579956,507.940918 
	C773.739685,509.490540 771.658386,511.332001 769.293945,512.674805 
	C765.155579,515.025085 760.843323,517.069153 756.239990,519.101196 
	C762.321228,515.309998 768.766418,511.659119 775.579956,507.940918 
z"/>
<path fill="#FCF9F9" opacity="1.000000" stroke="none" 
	d="
M705.608459,545.926819 
	C700.742920,548.971436 695.507385,552.089600 689.866394,555.139160 
	C694.720093,552.047119 699.979309,549.023743 705.608459,545.926819 
z"/>
<path fill="#FCF9F9" opacity="1.000000" stroke="none" 
	d="
M996.244751,593.244751 
	C996.035889,591.192383 996.409485,588.793091 996.135376,586.470276 
	C995.774231,583.408691 994.904297,580.407166 994.673706,577.142456 
	C999.648743,581.880188 998.291077,587.388245 996.244751,593.244751 
z"/>
<path fill="#FCF9F9" opacity="1.000000" stroke="none" 
	d="
M954.347656,786.977539 
	C955.156982,782.556824 956.308167,777.977905 957.646301,773.030823 
	C958.122192,777.678406 958.283752,782.665894 954.347656,786.977539 
z"/>
<path fill="#FCF9F9" opacity="1.000000" stroke="none" 
	d="
M748.018188,857.348999 
	C751.069763,858.519470 754.272278,860.018005 757.208801,861.815552 
	C754.018250,860.635437 751.093689,859.156250 748.018188,857.348999 
z"/>
<path fill="#FCF9F9" opacity="1.000000" stroke="none" 
	d="
M749.600464,521.939514 
	C747.172302,523.674988 744.379456,525.488037 741.232666,527.127563 
	C743.664490,525.308411 746.450195,523.662781 749.600464,521.939514 
z"/>
<path fill="#FCF9F9" opacity="1.000000" stroke="none" 
	d="
M738.594543,527.934021 
	C736.156494,529.707947 733.351257,531.549988 730.215820,533.163086 
	C732.666138,531.290222 735.446777,529.646179 738.594543,527.934021 
z"/>
<path fill="#FCF9F9" opacity="1.000000" stroke="none" 
	d="
M955.285889,554.784363 
	C952.191711,553.515442 948.827820,551.980103 945.765869,550.169800 
	C949.050659,551.435852 952.033447,552.976868 955.285889,554.784363 
z"/>
<path fill="#FCF9F9" opacity="1.000000" stroke="none" 
	d="
M716.576965,539.937256 
	C714.829041,541.328247 712.721375,542.780640 710.245728,544.097595 
	C711.990845,542.640991 714.104065,541.319885 716.576965,539.937256 
z"/>
<path fill="#FCF9F9" opacity="1.000000" stroke="none" 
	d="
M729.611084,532.935852 
	C727.849487,534.314148 725.728271,535.771118 723.241699,537.097412 
	C725.001343,535.649353 727.126404,534.331909 729.611084,532.935852 
z"/>
<path fill="#FCF9F9" opacity="1.000000" stroke="none" 
	d="
M628.930725,786.371399 
	C630.005432,787.815857 631.166138,789.625244 632.138123,791.778564 
	C630.971863,790.327087 629.994324,788.531738 628.930725,786.371399 
z"/>
<path fill="#FCF9F9" opacity="1.000000" stroke="none" 
	d="
M755.640015,518.932434 
	C754.182068,520.029541 752.358582,521.210693 750.210938,522.162231 
	C751.682678,520.960632 753.478638,519.988586 755.640015,518.932434 
z"/>
<path fill="#FCF9F9" opacity="1.000000" stroke="none" 
	d="
M976.443115,606.049683 
	C977.668762,604.854858 979.255920,603.607849 981.202271,602.656433 
	C979.975830,603.967163 978.390198,604.982361 976.443115,606.049683 
z"/>
<path fill="#FCF9F9" opacity="1.000000" stroke="none" 
	d="
M763.007812,865.334229 
	C764.706970,865.829346 766.549500,866.648804 768.175049,867.802368 
	C766.355713,867.310608 764.753418,866.484619 763.007812,865.334229 
z"/>
<path fill="#FCF9F9" opacity="1.000000" stroke="none" 
	d="
M837.381775,856.067627 
	C838.483887,855.016113 839.935913,853.887512 841.759399,852.884644 
	C840.664490,854.003845 839.198059,854.997192 837.381775,856.067627 
z"/>
<path fill="#FCF9F9" opacity="1.000000" stroke="none" 
	d="
M856.283325,845.027100 
	C857.087952,844.360962 858.252014,843.597717 859.769043,842.917725 
	C858.962219,843.643921 857.802490,844.286926 856.283325,845.027100 
z"/>
<path fill="#FCF9F9" opacity="1.000000" stroke="none" 
	d="
M827.297363,861.050232 
	C828.109985,860.332458 829.278748,859.514160 830.791382,858.858032 
	C829.974609,859.663330 828.814026,860.306519 827.297363,861.050232 
z"/>
<path fill="#FCF9F9" opacity="1.000000" stroke="none" 
	d="
M759.031250,863.370239 
	C760.240540,863.492920 761.604675,863.943176 763.007019,864.781250 
	C761.758850,864.678650 760.472534,864.188232 759.031250,863.370239 
z"/>
<path fill="#FCF9F9" opacity="1.000000" stroke="none" 
	d="
M632.631348,588.013794 
	C632.500610,588.946594 632.062500,590.012817 631.237915,591.034302 
	C631.342346,590.042114 631.833191,589.094666 632.631348,588.013794 
z"/>
<path fill="#FCF9F9" opacity="1.000000" stroke="none" 
	d="
M842.293213,853.060425 
	C843.162964,852.255432 844.374939,851.345154 845.848206,850.754150 
	C844.951477,851.700745 843.793457,852.327942 842.293213,853.060425 
z"/>
<path fill="#FCF9F9" opacity="1.000000" stroke="none" 
	d="
M846.374390,851.069336 
	C846.856689,850.368347 847.684998,849.586548 848.931885,848.829407 
	C848.473755,849.565552 847.597046,850.277039 846.374390,851.069336 
z"/>
<path fill="#FCF9F9" opacity="1.000000" stroke="none" 
	d="
M985.401733,601.048828 
	C985.824463,600.302734 986.575134,599.496948 987.732849,598.853760 
	C987.336487,599.674011 986.533020,600.331604 985.401733,601.048828 
z"/>
<path fill="#FCF9F9" opacity="1.000000" stroke="none" 
	d="
M878.796875,832.954590 
	C879.398254,832.248474 880.390076,831.541077 881.754822,830.916870 
	C881.147583,831.651123 880.167480,832.302246 878.796875,832.954590 
z"/>
<path fill="#FCF9F9" opacity="1.000000" stroke="none" 
	d="
M960.001099,557.693176 
	C958.963318,557.520325 957.789124,557.037354 956.827148,556.206787 
	C957.981079,556.367126 958.922913,556.875122 960.001099,557.693176 
z"/>
<path fill="#FCF9F9" opacity="1.000000" stroke="none" 
	d="
M815.339111,868.067017 
	C815.797241,867.413269 816.584656,866.669006 817.750854,865.954346 
	C817.309326,866.648132 816.488892,867.312317 815.339111,868.067017 
z"/>
<path fill="#FCF9F9" opacity="1.000000" stroke="none" 
	d="
M904.275513,819.077332 
	C904.441223,818.682495 904.930054,818.181458 905.776184,817.851074 
	C905.621887,818.338135 905.110291,818.654602 904.275513,819.077332 
z"/>
<path fill="#FCF9F9" opacity="1.000000" stroke="none" 
	d="
M888.283691,828.086304 
	C888.476135,827.601379 888.985657,827.017212 889.806702,826.749878 
	C889.612366,827.373474 889.106628,827.680237 888.283691,828.086304 
z"/>
<path fill="#FCF9F9" opacity="1.000000" stroke="none" 
	d="
M658.017090,810.380615 
	C658.599182,810.153870 659.308655,810.226807 660.011597,810.735107 
	C659.384949,811.007019 658.764709,810.843628 658.017090,810.380615 
z"/>
<path fill="#FCF9F9" opacity="1.000000" stroke="none" 
	d="
M633.955078,794.304382 
	C634.267090,794.373657 634.670044,794.775696 635.141724,795.486694 
	C634.822327,795.409485 634.434143,795.023315 633.955078,794.304382 
z"/>
<path fill="#FCF9F9" opacity="1.000000" stroke="none" 
	d="
M953.353516,788.999939 
	C953.153259,788.448669 953.262817,787.764343 953.771484,787.012024 
	C954.001465,787.585022 953.832336,788.225952 953.353516,788.999939 
z"/>
<path fill="#FCF9F9" opacity="1.000000" stroke="none" 
	d="
M823.799927,862.929138 
	C824.107788,862.414612 824.811951,861.908020 825.815002,861.734985 
	C825.474670,862.358032 824.835449,862.647583 823.799927,862.929138 
z"/>
<path fill="#FCF9F9" opacity="1.000000" stroke="none" 
	d="
M818.296509,866.054199 
	C818.531006,865.655518 819.133545,865.165466 820.137573,864.807312 
	C819.914246,865.280396 819.289368,865.621582 818.296509,866.054199 
z"/>
<path fill="#FCF9F9" opacity="1.000000" stroke="none" 
	d="
M769.716797,869.212891 
	C770.264099,869.049316 771.081726,869.150146 771.977539,869.713867 
	C771.366150,869.943542 770.676697,869.710388 769.716797,869.212891 
z"/>
<path fill="#FCF9F9" opacity="1.000000" stroke="none" 
	d="
M983.310303,602.091553 
	C983.489380,601.571106 983.984497,600.962402 984.797791,600.712402 
	C984.619385,601.381775 984.122864,601.692566 983.310303,602.091553 
z"/>
<path fill="#FCF9F9" opacity="1.000000" stroke="none" 
	d="
M811.292480,870.067505 
	C811.540222,869.616455 812.155518,869.067200 813.161865,868.733093 
	C812.921936,869.288574 812.290955,869.628906 811.292480,870.067505 
z"/>
<path fill="#FCF9F9" opacity="1.000000" stroke="none" 
	d="
M988.278076,599.071411 
	C988.456543,598.640808 988.949829,598.108948 989.786011,597.807983 
	C989.616882,598.349304 989.104919,598.659729 988.278076,599.071411 
z"/>
<path fill="#FCF9F9" opacity="1.000000" stroke="none" 
	d="
M990.315552,598.083496 
	C990.551758,597.597717 991.153870,597.017273 992.153687,596.692261 
	C991.928162,597.294739 991.304749,597.641785 990.315552,598.083496 
z"/>
<path fill="#FCF9F9" opacity="1.000000" stroke="none" 
	d="
M807.272217,872.047119 
	C807.516907,871.730347 808.121216,871.300171 809.129211,870.899048 
	C808.899170,871.263306 808.265503,871.598572 807.272217,872.047119 
z"/>
<path fill="#FCF9F9" opacity="1.000000" stroke="none" 
	d="
M630.656067,591.010193 
	C630.836487,591.554688 630.718079,592.235718 630.221680,592.968384 
	C630.014954,592.395508 630.186096,591.771179 630.656067,591.010193 
z"/>
<path fill="#FCF9F9" opacity="1.000000" stroke="none" 
	d="
M871.259094,837.068665 
	C871.435486,836.692505 871.925537,836.202393 872.772461,835.865845 
	C872.610535,836.331177 872.091675,836.642944 871.259094,837.068665 
z"/>
<path fill="#FCF9F9" opacity="1.000000" stroke="none" 
	d="
M833.286377,858.081787 
	C833.453308,857.652527 833.941284,857.121582 834.781738,856.813354 
	C834.625183,857.350769 834.116333,857.665466 833.286377,858.081787 
z"/>
<path fill="#FCF9F9" opacity="1.000000" stroke="none" 
	d="
M835.286011,857.082397 
	C835.463623,856.627747 835.960144,856.071472 836.793213,855.782959 
	C836.621460,856.360718 836.113220,856.670715 835.286011,857.082397 
z"/>
<path fill="#FCF9F9" opacity="1.000000" stroke="none" 
	d="
M757.022461,862.358032 
	C757.591736,862.141968 758.299561,862.223877 759.021240,862.740417 
	C758.410461,863.002075 757.785767,862.828979 757.022461,862.358032 
z"/>
<path fill="#FCF9F9" opacity="1.000000" stroke="none" 
	d="
M805.201721,873.065308 
	C805.388672,872.741943 805.899536,872.294312 806.765503,871.921143 
	C806.588989,872.310730 806.057312,872.625854 805.201721,873.065308 
z"/>
<path fill="#FCF9F9" opacity="1.000000" stroke="none" 
	d="
M860.272766,843.047241 
	C860.520325,842.722900 861.124634,842.284302 862.133606,841.893066 
	C861.901978,842.271301 861.265747,842.602112 860.272766,843.047241 
z"/>
<path fill="#FCF9F9" opacity="1.000000" stroke="none" 
	d="
M864.277527,841.083252 
	C864.459595,840.630310 864.962280,840.077332 865.796570,839.786987 
	C865.618164,840.360840 865.108215,840.672058 864.277527,841.083252 
z"/>
<path fill="#FCF9F9" opacity="1.000000" stroke="none" 
	d="
M866.293945,840.084106 
	C866.468079,839.623291 866.960327,839.062866 867.791687,838.777710 
	C867.624573,839.363525 867.118347,839.674011 866.293945,840.084106 
z"/>
<path fill="#FCF9F9" opacity="1.000000" stroke="none" 
	d="
M868.293579,839.090637 
	C868.489197,838.584290 869.000793,837.982422 869.816162,837.727966 
	C869.616516,838.381958 869.112976,838.688477 868.293579,839.090637 
z"/>
<path fill="#FCF9F9" opacity="1.000000" stroke="none" 
	d="
M898.278442,822.053589 
	C898.515686,821.700073 899.118713,821.236633 900.127808,820.850525 
	C899.903992,821.266418 899.274109,821.605103 898.278442,822.053589 
z"/>
<path fill="#FCF9F9" opacity="1.000000" stroke="none" 
	d="
M873.287354,836.062744 
	C873.450439,835.659851 873.937317,835.161072 874.779663,834.843628 
	C874.627136,835.338928 874.119141,835.652893 873.287354,836.062744 
z"/>
<path fill="#FCF9F9" opacity="1.000000" stroke="none" 
	d="
M875.272217,835.078125 
	C875.458191,834.635132 875.963562,834.084778 876.800354,833.791870 
	C876.618347,834.356445 876.104919,834.663635 875.272217,835.078125 
z"/>
<path fill="#FCF9F9" opacity="1.000000" stroke="none" 
	d="
M882.265747,831.055542 
	C882.441223,830.673584 882.942566,830.189209 883.790405,829.861572 
	C883.621826,830.329895 883.106750,830.641479 882.265747,831.055542 
z"/>
<path fill="#FCF9F9" opacity="1.000000" stroke="none" 
	d="
M884.273254,830.077637 
	C884.446472,829.665344 884.942078,829.147339 885.787659,828.830933 
	C885.623657,829.345642 885.109619,829.658813 884.273254,830.077637 
z"/>
<path fill="#FCF9F9" opacity="1.000000" stroke="none" 
	d="
M886.289307,829.083130 
	C886.455811,828.648926 886.943237,828.114319 887.782959,827.808777 
	C887.626953,828.352783 887.118591,828.667725 886.289307,829.083130 
z"/>
<path fill="#FCF9F9" opacity="1.000000" stroke="none" 
	d="
M831.272583,859.077637 
	C831.445862,858.664062 831.941650,858.144958 832.786743,857.828613 
	C832.622375,858.344971 832.108765,858.658508 831.272583,859.077637 
z"/>
<path fill="#FCF9F9" opacity="1.000000" stroke="none" 
	d="
M891.274292,826.059937 
	C891.446777,825.662476 891.944397,825.167847 892.787903,824.849365 
	C892.622314,825.337891 892.110901,825.650391 891.274292,826.059937 
z"/>
<path fill="#FCF9F9" opacity="1.000000" stroke="none" 
	d="
M893.291931,825.081909 
	C893.541992,824.621826 894.156921,824.050232 895.165894,823.714722 
	C894.925537,824.290649 894.291138,824.630493 893.291931,825.081909 
z"/>
<path fill="#FCF9F9" opacity="1.000000" stroke="none" 
	d="
M965.981934,560.663574 
	C965.435059,560.849365 964.740967,560.738647 963.999207,560.227478 
	C964.579224,560.007080 965.206970,560.187073 965.981934,560.663574 
z"/>
<path fill="#FCF9F9" opacity="1.000000" stroke="none" 
	d="
M986.974487,571.639404 
	C986.403992,571.858398 985.692627,571.782043 984.974182,571.263062 
	C985.589294,570.994934 986.211487,571.169495 986.974487,571.639404 
z"/>
<path fill="#FCF9F9" opacity="1.000000" stroke="none" 
	d="
M984.993042,570.658264 
	C984.410828,570.859985 983.690369,570.760498 982.969543,570.244385 
	C983.597656,570.004211 984.226257,570.180603 984.993042,570.658264 
z"/>
<path fill="#FCF9F9" opacity="1.000000" stroke="none" 
	d="
M661.673462,569.933655 
	C661.449280,570.310608 660.862915,570.775330 659.868958,571.151611 
	C660.078003,570.715942 660.694641,570.368652 661.673462,569.933655 
z"/>
<path fill="#FCF9F9" opacity="1.000000" stroke="none" 
	d="
M982.990173,569.666016 
	C982.412170,569.860352 981.693604,569.754944 980.971985,569.238281 
	C981.595825,569.006714 982.222717,569.186462 982.990173,569.666016 
z"/>
<path fill="#FCF9F9" opacity="1.000000" stroke="none" 
	d="
M980.990479,568.664917 
	C980.416504,568.858765 979.703369,568.751526 978.976807,568.237000 
	C979.592651,568.007751 980.221924,568.185730 980.990479,568.664917 
z"/>
<path fill="#FCF9F9" opacity="1.000000" stroke="none" 
	d="
M665.702881,567.932800 
	C665.540405,568.306091 665.058105,568.763123 664.225952,569.091064 
	C664.378418,568.646790 664.880737,568.331726 665.702881,567.932800 
z"/>
<path fill="#FCF9F9" opacity="1.000000" stroke="none" 
	d="
M978.982788,567.664612 
	C978.448853,567.755066 977.754395,567.522217 977.001953,566.874756 
	C977.570129,566.753845 978.196228,567.047546 978.982788,567.664612 
z"/>
<path fill="#FCF9F9" opacity="1.000000" stroke="none" 
	d="
M667.715942,566.941895 
	C667.546997,567.286194 667.058044,567.721436 666.221680,568.065125 
	C666.381470,567.659973 666.888672,567.346313 667.715942,566.941895 
z"/>
<path fill="#FCF9F9" opacity="1.000000" stroke="none" 
	d="
M669.722534,565.953186 
	C669.550964,566.279968 669.058838,566.701294 668.223755,567.050842 
	C668.387939,566.668579 668.895020,566.358154 669.722534,565.953186 
z"/>
<path fill="#FCF9F9" opacity="1.000000" stroke="none" 
	d="
M672.703125,563.918701 
	C672.531555,564.348816 672.041138,564.868164 671.214966,565.162659 
	C671.380920,564.627869 671.882629,564.317932 672.703125,563.918701 
z"/>
<path fill="#FCF9F9" opacity="1.000000" stroke="none" 
	d="
M676.677856,561.936279 
	C676.451599,562.310120 675.863586,562.772339 674.868591,563.149048 
	C675.079773,562.717285 675.697876,562.371033 676.677856,561.936279 
z"/>
<path fill="#FCF9F9" opacity="1.000000" stroke="none" 
	d="
M967.970703,561.658264 
	C967.402466,561.860352 966.686523,561.772644 965.970947,561.257202 
	C966.588562,561.009094 967.205688,561.188782 967.970703,561.658264 
z"/>
<path fill="#FCF9F9" opacity="1.000000" stroke="none" 
	d="
M678.718018,560.949219 
	C678.547607,561.291321 678.057312,561.720337 677.222534,562.061462 
	C677.384766,561.661072 677.891418,561.348511 678.718018,560.949219 
z"/>
<path fill="#FCF9F9" opacity="1.000000" stroke="none" 
	d="
M663.705078,568.933350 
	C663.543213,569.289978 663.065979,569.738525 662.233398,570.076599 
	C662.381897,569.652527 662.885803,569.338867 663.705078,568.933350 
z"/>
<path fill="#FCF9F9" opacity="1.000000" stroke="none" 
	d="
M963.994690,559.676758 
	C963.434937,559.857422 962.737549,559.733093 961.998596,559.221802 
	C962.590332,559.013794 963.223755,559.192810 963.994690,559.676758 
z"/>
<path fill="#FCF9F9" opacity="1.000000" stroke="none" 
	d="
M681.702759,558.920715 
	C681.525208,559.365784 681.030884,559.902527 680.210938,560.185364 
	C680.385620,559.625122 680.885803,559.318787 681.702759,558.920715 
z"/>
<path fill="#FCF9F9" opacity="1.000000" stroke="none" 
	d="
M961.986633,558.680176 
	C961.439758,558.852905 960.750671,558.724487 960.005493,558.216797 
	C960.581116,558.018066 961.212769,558.198486 961.986633,558.680176 
z"/>
<path fill="#FCF9F9" opacity="1.000000" stroke="none" 
	d="
M683.693909,557.918457 
	C683.533569,558.336487 683.054016,558.843201 682.225891,559.148865 
	C682.376404,558.634338 682.875549,558.320740 683.693909,557.918457 
z"/>
<path fill="#FCF9F9" opacity="1.000000" stroke="none" 
	d="
M685.703491,556.929443 
	C685.530945,557.343628 685.038269,557.845032 684.211182,558.145203 
	C684.378906,557.634827 684.881104,557.325745 685.703491,556.929443 
z"/>
<path fill="#FCF9F9" opacity="1.000000" stroke="none" 
	d="
M687.711060,555.939453 
	C687.544067,556.302795 687.059143,556.758728 686.225586,557.088501 
	C686.382324,556.652283 686.887756,556.342102 687.711060,555.939453 
z"/>
<path fill="#FCF9F9" opacity="1.000000" stroke="none" 
	d="
M707.697876,544.919678 
	C707.535400,545.335266 707.052673,545.839661 706.221924,546.147217 
	C706.375061,545.636414 706.876343,545.322449 707.697876,544.919678 
z"/>
<path fill="#FCF9F9" opacity="1.000000" stroke="none" 
	d="
M709.696350,543.931396 
	C709.531677,544.336914 709.046265,544.827759 708.218018,545.134766 
	C708.375305,544.639526 708.875488,544.328125 709.696350,543.931396 
z"/>
<path fill="#FCF9F9" opacity="1.000000" stroke="none" 
	d="
M718.697998,538.918213 
	C718.515137,539.381287 718.017273,539.936035 717.203125,540.206787 
	C717.385559,539.618530 717.884338,539.314209 718.697998,538.918213 
z"/>
<path fill="#FCF9F9" opacity="1.000000" stroke="none" 
	d="
M722.680481,536.928284 
	C722.454834,537.321533 721.866882,537.807617 720.869690,538.177002 
	C721.079712,537.713989 721.698914,537.367554 722.680481,536.928284 
z"/>
<path fill="#FCF9F9" opacity="1.000000" stroke="none" 
	d="
M740.702209,526.928650 
	C740.530945,527.345886 740.044922,527.852661 739.219482,528.150513 
	C739.382446,527.633728 739.884949,527.325989 740.702209,526.928650 
z"/>
<path fill="#FCF9F9" opacity="1.000000" stroke="none" 
	d="
M777.705994,506.925201 
	C777.524719,507.364777 777.030884,507.891907 776.213196,508.173767 
	C776.390686,507.623260 776.892090,507.317993 777.705994,506.925201 
z"/>
<path fill="#FCF9F9" opacity="1.000000" stroke="none" 
	d="
M657.693970,571.917603 
	C657.530701,572.345337 657.049011,572.861084 656.223389,573.159668 
	C656.378052,572.630127 656.876770,572.317810 657.693970,571.917603 
z"/>
<path fill="#FCF9F9" opacity="1.000000" stroke="none" 
	d="
M650.699097,575.934204 
	C650.538696,576.312805 650.058777,576.776978 649.227722,577.101074 
	C649.377563,576.647278 649.878540,576.333496 650.699097,575.934204 
z"/>
<path fill="#FCF9F9" opacity="1.000000" stroke="none" 
	d="
M652.715393,574.942871 
	C652.545471,575.296997 652.057007,575.741943 651.222656,576.077271 
	C651.383484,575.656311 651.890137,575.345032 652.715393,574.942871 
z"/>
<path fill="#FCF9F9" opacity="1.000000" stroke="none" 
	d="
M648.708618,576.931030 
	C648.541077,577.310913 648.058777,577.782593 647.226196,578.105225 
	C647.381958,577.645081 647.887939,577.333984 648.708618,576.931030 
z"/>
<path fill="#FCF9F9" opacity="1.000000" stroke="none" 
	d="
M646.694946,577.928833 
	C646.518433,578.372070 646.028564,578.896545 645.212952,579.174683 
	C645.385315,578.622253 645.883484,578.316162 646.694946,577.928833 
z"/>
<path fill="#FCF9F9" opacity="1.000000" stroke="none" 
	d="
M654.718506,573.952148 
	C654.548645,574.281677 654.058289,574.702209 653.224487,575.050964 
	C653.386597,574.667114 653.892334,574.355164 654.718506,573.952148 
z"/>
<path fill="#FCF9F9" opacity="1.000000" stroke="none" 
	d="
M643.705383,579.934509 
	C643.542786,580.298828 643.060730,580.750610 642.226868,581.084595 
	C642.378723,580.651917 642.882324,580.336975 643.705383,579.934509 
z"/>
<path fill="#FCF9F9" opacity="1.000000" stroke="none" 
	d="
M637.825073,584.141541 
	C637.591125,584.584595 637.019348,584.971252 636.168579,585.145752 
	C636.422180,584.650757 636.954712,584.367981 637.825073,584.141541 
z"/>
<path fill="#FCF9F9" opacity="1.000000" stroke="none" 
	d="
M989.287720,572.787964 
	C988.709045,572.966492 987.858948,572.883911 986.985840,572.308350 
	C987.647278,572.052490 988.331787,572.289673 989.287720,572.787964 
z"/>
<path fill="#FCF9F9" opacity="1.000000" stroke="none" 
	d="
M641.737305,580.960815 
	C641.858521,581.205444 641.726196,581.552551 641.284485,581.939697 
	C641.144653,581.674255 641.314148,581.368774 641.737305,580.960815 
z"/>
<path fill="#FCF9F9" opacity="1.000000" stroke="none" 
	d="
M633.724731,586.957642 
	C633.852539,587.289185 633.718933,587.723511 633.218384,588.066650 
	C633.055359,587.670532 633.259338,587.365479 633.724731,586.957642 
z"/>
<path fill="#FCF9F9" opacity="1.000000" stroke="none" 
	d="
M635.719971,584.958130 
	C635.848938,585.256104 635.715576,585.660156 635.218933,586.029175 
	C635.056335,585.684204 635.257019,585.374207 635.719971,584.958130 
z"/>
<path fill="#FCF9F9" opacity="1.000000" stroke="none" 
	d="
M679.716980,559.963257 
	C679.846069,560.222412 679.719482,560.596008 679.234619,560.987549 
	C679.071350,560.696228 679.266296,560.386963 679.716980,559.963257 
z"/>
<path fill="#FCF9F9" opacity="1.000000" stroke="none" 
	d="
M981.789001,602.983459 
	C981.727905,602.505310 982.031677,602.016174 982.741272,601.784607 
	C982.815979,602.352295 982.484924,602.662354 981.789001,602.983459 
z"/>
<path fill="#FCF9F9" opacity="1.000000" stroke="none" 
	d="
M809.778687,870.939758 
	C809.735229,870.592712 810.054810,870.225342 810.756592,869.925415 
	C810.806458,870.301819 810.474121,870.610657 809.778687,870.939758 
z"/>
<path fill="#FCF9F9" opacity="1.000000" stroke="none" 
	d="
M720.214600,538.028442 
	C720.264832,538.454773 719.951477,538.882202 719.252075,539.131226 
	C719.194397,538.644958 719.522705,538.337219 720.214600,538.028442 
z"/>
<path fill="#FCF9F9" opacity="1.000000" stroke="none" 
	d="
M644.707397,578.963867 
	C644.845764,579.254272 644.725891,579.650940 644.234741,580.020874 
	C644.058716,579.686157 644.253906,579.378174 644.707397,578.963867 
z"/>
<path fill="#FCF9F9" opacity="1.000000" stroke="none" 
	d="
M826.285400,862.029785 
	C826.128601,861.758301 826.224731,861.364319 826.727173,860.973999 
	C826.935120,861.287537 826.736755,861.597412 826.285400,862.029785 
z"/>
<path fill="#FCF9F9" opacity="1.000000" stroke="none" 
	d="
M992.791626,596.977295 
	C992.740784,596.487000 993.052551,595.987610 993.755005,595.769043 
	C993.815186,596.355896 993.484680,596.662048 992.791626,596.977295 
z"/>
<path fill="#FCF9F9" opacity="1.000000" stroke="none" 
	d="
M956.990356,555.635071 
	C956.611755,555.954834 956.077026,555.944458 955.484497,555.471985 
	C955.895813,555.108215 956.365051,555.206543 956.990356,555.635071 
z"/>
<path fill="#FCF9F9" opacity="1.000000" stroke="none" 
	d="
M822.255005,864.037537 
	C822.218140,863.843689 822.482910,863.500244 823.110962,863.031372 
	C823.168396,863.233337 822.862549,863.560608 822.255005,864.037537 
z"/>
<path fill="#FCF9F9" opacity="1.000000" stroke="none" 
	d="
M820.791992,864.967896 
	C820.733643,864.565735 821.044617,864.156738 821.751465,863.877441 
	C821.818665,864.325073 821.490051,864.643066 820.791992,864.967896 
z"/>
<path fill="#FCF9F9" opacity="1.000000" stroke="none" 
	d="
M689.219482,555.045166 
	C689.265625,555.399292 688.948792,555.762268 688.252747,556.054016 
	C688.201172,555.673218 688.528809,555.363586 689.219482,555.045166 
z"/>
<path fill="#FCF9F9" opacity="1.000000" stroke="none" 
	d="
M994.294312,596.058838 
	C994.116882,595.641541 994.203369,595.123291 994.724854,594.817749 
	C994.959229,595.339539 994.758728,595.648682 994.294312,596.058838 
z"/>
<path fill="#FCF9F9" opacity="1.000000" stroke="none" 
	d="
M995.376831,594.986572 
	C995.032410,594.595459 995.014648,594.045654 995.493774,593.460938 
	C995.894958,593.893250 995.799194,594.360535 995.376831,594.986572 
z"/>
<path fill="#FCF9F9" opacity="1.000000" stroke="none" 
	d="
M768.008667,868.362854 
	C768.382690,868.047974 768.912476,868.063660 769.507080,868.533813 
	C769.102722,868.890015 768.633545,868.791687 768.008667,868.362854 
z"/>
<path fill="#FCF9F9" opacity="1.000000" stroke="none" 
	d="
M813.795654,868.977051 
	C813.731689,868.546387 814.034485,868.106506 814.741821,867.843628 
	C814.818359,868.336487 814.490356,868.652161 813.795654,868.977051 
z"/>
<path fill="#FCF9F9" opacity="1.000000" stroke="none" 
	d="
M631.958313,792.281250 
	C632.258057,792.149902 632.661682,792.281616 633.029724,792.777100 
	C632.683533,792.942017 632.372803,792.743225 631.958313,792.281250 
z"/>
<path fill="#FCF9F9" opacity="1.000000" stroke="none" 
	d="
M902.790161,819.964172 
	C902.734863,819.570740 903.049438,819.171936 903.755371,818.889404 
	C903.817810,819.323364 903.488892,819.641113 902.790161,819.964172 
z"/>
<path fill="#FCF9F9" opacity="1.000000" stroke="none" 
	d="
M900.837158,820.956055 
	C900.831604,820.572876 901.240479,820.185181 902.092773,819.866455 
	C902.108032,820.274170 901.679810,820.612915 900.837158,820.956055 
z"/>
<path fill="#FCF9F9" opacity="1.000000" stroke="none" 
	d="
M906.240723,818.042358 
	C906.128540,817.814819 906.269104,817.460083 906.734680,817.038147 
	C906.870972,817.285706 906.682190,817.600464 906.240723,818.042358 
z"/>
<path fill="#FCF9F9" opacity="1.000000" stroke="none" 
	d="
M897.281860,823.043213 
	C897.126465,822.753235 897.231445,822.346619 897.732483,821.958862 
	C897.933105,822.294006 897.737610,822.610352 897.281860,823.043213 
z"/>
<path fill="#FCF9F9" opacity="1.000000" stroke="none" 
	d="
M895.792053,823.981079 
	C895.730225,823.533569 896.035034,823.075867 896.744873,822.823608 
	C896.819519,823.343079 896.489075,823.656982 895.792053,823.981079 
z"/>
<path fill="#FCF9F9" opacity="1.000000" stroke="none" 
	d="
M659.214722,571.030762 
	C659.265259,571.441345 658.950562,571.852417 658.249268,572.112183 
	C658.191589,571.651001 658.520569,571.341125 659.214722,571.030762 
z"/>
<path fill="#FCF9F9" opacity="1.000000" stroke="none" 
	d="
M890.288696,827.036743 
	C890.129456,826.750244 890.227539,826.345459 890.733521,825.960327 
	C890.942932,826.292847 890.744446,826.605591 890.288696,827.036743 
z"/>
<path fill="#FCF9F9" opacity="1.000000" stroke="none" 
	d="
M656.917480,809.191956 
	C657.282043,809.077087 657.755798,809.239014 658.096619,809.775269 
	C657.651367,809.922607 657.339050,809.695679 656.917480,809.191956 
z"/>
<path fill="#FCF9F9" opacity="1.000000" stroke="none" 
	d="
M655.724976,572.959839 
	C655.848389,573.223755 655.714722,573.601501 655.229858,573.991089 
	C655.075073,573.693115 655.271423,573.383423 655.724976,572.959839 
z"/>
<path fill="#FCF9F9" opacity="1.000000" stroke="none" 
	d="
M634.728882,585.958252 
	C634.851807,586.269348 634.710510,586.682495 634.212097,587.040771 
	C634.058228,586.677307 634.261475,586.368774 634.728882,585.958252 
z"/>
<path fill="#FCF9F9" opacity="1.000000" stroke="none" 
	d="
M632.960693,793.265747 
	C633.230713,793.151123 633.606812,793.301025 633.996033,793.786621 
	C633.695007,793.925049 633.380859,793.727661 632.960693,793.265747 
z"/>
<path fill="#FCF9F9" opacity="1.000000" stroke="none" 
	d="
M995.040710,576.695923 
	C994.570374,576.800537 993.957703,576.601257 993.641602,575.929932 
	C994.258240,575.769287 994.578308,576.080688 995.040710,576.695923 
z"/>
<path fill="#FCF9F9" opacity="1.000000" stroke="none" 
	d="
M877.284546,834.040649 
	C877.213501,833.780884 877.447510,833.375122 878.104431,832.946533 
	C878.214783,833.247314 877.902222,833.570984 877.284546,834.040649 
z"/>
<path fill="#FCF9F9" opacity="1.000000" stroke="none" 
	d="
M951.107178,791.151733 
	C951.014465,790.858215 951.200195,790.393005 951.774780,789.952759 
	C951.904358,790.311829 951.645020,790.645935 951.107178,791.151733 
z"/>
<path fill="#FCF9F9" opacity="1.000000" stroke="none" 
	d="
M952.254517,790.047607 
	C952.126892,789.700928 952.266174,789.244263 952.786743,788.896667 
	C952.952515,789.316406 952.737000,789.626953 952.254517,790.047607 
z"/>
<path fill="#FCF9F9" opacity="1.000000" stroke="none" 
	d="
M991.265198,573.755859 
	C990.929016,574.052002 990.299133,574.054016 989.547485,573.531372 
	C989.940979,573.158325 990.456177,573.309998 991.265198,573.755859 
z"/>
<path fill="#FCF9F9" opacity="1.000000" stroke="none" 
	d="
M870.309326,838.048584 
	C870.121216,837.723389 870.200256,837.295227 870.714111,836.926636 
	C870.958008,837.305969 870.767212,837.625854 870.309326,838.048584 
z"/>
<path fill="#FCF9F9" opacity="1.000000" stroke="none" 
	d="
M670.718750,564.957520 
	C670.848999,565.226868 670.720703,565.607117 670.236694,565.994873 
	C670.074036,565.691040 670.267090,565.379761 670.718750,564.957520 
z"/>
<path fill="#FCF9F9" opacity="1.000000" stroke="none" 
	d="
M674.214172,563.031250 
	C674.266785,563.428040 673.953064,563.825195 673.250977,564.095215 
	C673.190979,563.655945 673.519470,563.343750 674.214172,563.031250 
z"/>
<path fill="#FCF9F9" opacity="1.000000" stroke="none" 
	d="
M862.789978,841.964111 
	C862.735229,841.563904 863.050659,841.159241 863.758423,840.880737 
	C863.820557,841.324524 863.490295,841.642090 862.789978,841.964111 
z"/>
<path fill="#FCF9F9" opacity="1.000000" stroke="none" 
	d="
M968.821350,563.076660 
	C968.364380,563.086121 967.961975,562.777893 967.805542,562.175964 
	C968.326294,562.174500 968.601074,562.466736 968.821350,563.076660 
z"/>
<path fill="#FCF9F9" opacity="1.000000" stroke="none" 
	d="
M993.255493,574.762329 
	C992.908386,575.082458 992.275208,575.101624 991.533752,574.563721 
	C991.940063,574.158142 992.454773,574.309692 993.255493,574.762329 
z"/>
<path fill="#FCF9F9" opacity="1.000000" stroke="none" 
	d="
M911.904175,601.276733 
	C908.134094,600.945007 904.576233,601.270691 901.584351,600.122131 
	C895.865234,597.926697 891.295349,599.268555 886.163635,602.120483 
	C864.623535,614.091370 842.904053,625.743713 821.116577,637.259705 
	C818.525940,638.629028 815.074646,638.993713 812.100891,638.771606 
	C810.417725,638.645935 808.243103,636.640320 807.563843,634.964905 
	C807.203308,634.075806 809.247559,631.526794 810.745117,630.679443 
	C821.032715,624.858887 831.441223,619.250122 841.852661,613.651062 
	C854.757812,606.710876 867.706360,599.851440 880.626160,592.938477 
	C881.625732,592.403625 882.546143,591.720703 883.458252,591.135498 
	C880.151611,581.681152 881.805847,576.834534 890.628296,572.018555 
	C903.518005,564.982483 917.192261,563.614807 931.242554,567.861633 
	C936.576233,569.473938 941.719971,572.012634 942.891541,578.294739 
	C944.080627,584.670715 940.455017,589.113159 935.936340,592.858643 
	C929.129028,598.501038 921.085083,600.868286 911.904175,601.276733 
z"/>
</svg>